<?xml version="1.0" encoding="UTF-8"?>
<svg width="42px" height="27px" viewBox="0 0 42 27" version="1.1" xmlns="http://www.w3.org/2000/svg" xmlns:xlink="http://www.w3.org/1999/xlink">
    <title>Group</title>
    <defs>
        <polygon id="path-1" points="0.2985 0.385 19.6619272 0.385 19.6619272 20.9938 0.2985 20.9938"></polygon>
    </defs>
    <g id="Page-1" stroke="none" stroke-width="1" fill="none" fill-rule="evenodd">
        <g id="Barriers-to-digital-information_Popup-Copy-2" transform="translate(-28.000000, -18.000000)">
            <g id="Group" transform="translate(28.500073, 18.615000)">
                <polygon id="Fill-1" fill="#F99F20" points="3.07542709 17.3594 13.0564271 25.1984 15.8474271 21.8334 5.86542709 13.9944"></polygon>
                <path d="M0.0597270865,13.333 C0.607727086,12.112 1.57772709,11.622 2.90572709,11.845 C3.86672709,12.247 4.40772709,12.887 4.49672709,13.764 C4.55872709,14.368 4.38872709,14.906 3.99372709,15.388 C3.60672709,15.852 3.10772709,16.12 2.49172709,16.18 C1.87572709,16.242 1.32972709,16.087 0.850727086,15.71 C0.136727086,15.147 -0.131272914,14.354 0.0597270865,13.333 Z" id="Fill-2" fill="#F99F20"></path>
                <g id="Group-6" transform="translate(6.499927, 0.000000)">
                    <mask id="mask-2" fill="white">
                        <use xlink:href="#path-1"></use>
                    </mask>
                    <g id="Clip-5"></g>
                    <path d="M10.9475,14.8638 L13.4455,16.8378 L10.0005,20.9938 L0.2985,13.3218 L12.8625,8.7878 C13.0415,8.7198 13.2195,8.6208 13.3975,8.4888 C13.5755,8.3548 13.7345,8.2038 13.8725,8.0398 C14.1955,7.6478 14.3315,7.2598 14.2745,6.8798 C14.2225,6.4938 13.9795,6.1348 13.5545,5.7968 C13.1665,5.4888 12.7535,5.3588 12.3105,5.4058 C11.8675,5.4508 11.4935,5.6558 11.1925,6.0178 C11.0165,6.2328 10.9105,6.4448 10.8645,6.6578 C10.8265,6.8728 10.8435,7.1108 10.9295,7.3758 L6.4435,9.0428 C5.9395,7.9298 5.7545,6.8588 5.8885,5.8308 C6.0305,4.8068 6.4865,3.8208 7.2695,2.8788 C8.4905,1.4078 10.0245,0.5878 11.8785,0.4158 C13.7315,0.2438 15.4455,0.7808 17.0205,2.0278 C18.5235,3.2148 19.3845,4.6838 19.6065,6.4278 C19.8305,8.1758 19.3755,9.7308 18.2425,11.0968 C17.8505,11.5668 17.3885,11.9768 16.8505,12.3268 C16.3125,12.6748 15.4945,13.0658 14.3895,13.5018 L10.9475,14.8638 Z" id="Fill-4" fill="#211D1E" mask="url(#mask-2)"></path>
                </g>
                <polygon id="Fill-7" fill="#9A1C25" points="27.2033271 25.3604 14.2443271 25.3604 20.8353271 17.2744"></polygon>
                <path d="M33.9240271,18.0074 L39.2230271,20.8904 L39.1930271,20.9444 C38.0570271,22.9564 36.4060271,24.2484 34.2350271,24.8294 C32.0710271,25.4094 29.9690271,25.1474 27.9380271,24.0444 C27.2160271,23.6504 26.5760271,23.1684 26.0170271,22.5994 C25.4590271,22.0314 24.9890271,21.3894 24.6110271,20.6774 C23.9690271,19.4364 23.6540271,18.1394 23.6710271,16.7964 C23.6890271,15.4514 24.0350271,14.1844 24.7070271,12.9924 C25.2380271,12.0524 25.9370271,11.2474 26.7950271,10.5804 C27.6530271,9.9144 28.6130271,9.4354 29.6760271,9.1444 C30.7610271,8.8304 31.8460271,8.7324 32.9300271,8.8494 C34.0160271,8.9644 35.0340271,9.2814 35.9840271,9.7984 C37.7710271,10.7704 39.0230271,12.1564 39.7480271,13.9614 C40.4690271,15.7674 40.4990271,17.6074 39.8300271,19.4754 L34.5460271,16.6034 C34.4390271,16.1824 34.2820271,15.8324 34.0810271,15.5444 C33.8790271,15.2604 33.6140271,15.0294 33.2780271,14.8454 C32.6870271,14.5244 32.0900271,14.4414 31.4790271,14.5924 C30.8650271,14.7494 30.4080271,15.0944 30.1020271,15.6394 C29.8030271,16.1674 29.7420271,16.7284 29.9160271,17.3274 C30.0890271,17.9244 30.4480271,18.3704 30.9840271,18.6614 C31.5130271,18.9464 32.0210271,19.0354 32.5040271,18.9304 C32.9910271,18.8204 33.4660271,18.5134 33.9240271,18.0074" id="Fill-9" fill="#28B6E9"></path>
            </g>
        </g>
    </g>
</svg>